<?xml version="1.0" encoding="utf-8"?>
<!-- Generator: Adobe Illustrator 26.2.1, SVG Export Plug-In . SVG Version: 6.00 Build 0)  -->
<svg version="1.1"
	 id="svg10" inkscape:version="1.1 (c4e8f9ed74, 2021-05-24)" sodipodi:docname="console.svg" xmlns:cc="http://creativecommons.org/ns#" xmlns:dc="http://purl.org/dc/elements/1.1/" xmlns:inkscape="http://www.inkscape.org/namespaces/inkscape" xmlns:rdf="http://www.w3.org/1999/02/22-rdf-syntax-ns#" xmlns:sodipodi="http://sodipodi.sourceforge.net/DTD/sodipodi-0.dtd" xmlns:svg="http://www.w3.org/2000/svg"
	 xmlns="http://www.w3.org/2000/svg" xmlns:xlink="http://www.w3.org/1999/xlink" x="0px" y="0px" width="64px" height="64px"
	 viewBox="0 0 64 64" style="enable-background:new 0 0 64 64;" xml:space="preserve">
<style type="text/css">
	.st0{fill:#FFFFFF;}
</style>
<sodipodi:namedview  bordercolor="#666666" borderopacity="1" gridtolerance="10" guidetolerance="10" id="namedview12" inkscape:bbox-nodes="true" inkscape:bbox-paths="true" inkscape:current-layer="svg10" inkscape:cx="10.713376" inkscape:cy="32.047771" inkscape:document-rotation="0" inkscape:pagecheckerboard="false" inkscape:pageopacity="0" inkscape:pageshadow="2" inkscape:snap-bbox="true" inkscape:snap-bbox-edge-midpoints="true" inkscape:snap-bbox-midpoints="true" inkscape:snap-center="true" inkscape:snap-intersection-paths="true" inkscape:snap-midpoints="true" inkscape:snap-object-midpoints="true" inkscape:snap-smooth-nodes="true" inkscape:window-height="826" inkscape:window-maximized="1" inkscape:window-width="1600" inkscape:window-x="0" inkscape:window-y="0" inkscape:zoom="5.4137931" objecttolerance="10" pagecolor="#bfbfbf" showgrid="false">
	</sodipodi:namedview>
<desc  id="desc4">Created with Sketch.</desc>
<g>
	<g>
		<path class="st0" d="M22.8,51.9c-2.9-1.2-5.4-3-7.6-5.2S11.2,42,10,39.1s-1.9-6-1.9-9.2s0.6-6.3,1.9-9.2s3-5.4,5.2-7.6
			s4.7-3.9,7.6-5.2s6-1.9,9.2-1.9c3.3,0,6.3,0.6,9.2,1.9s5.4,3,7.6,5.2s3.9,4.7,5.2,7.6s1.9,6,1.9,9.2s-0.6,6.3-1.9,9.2
			s-3,5.4-5.2,7.6s-4.7,3.9-7.6,5.2s-6,1.9-9.2,1.9C28.7,53.8,25.7,53.1,22.8,51.9z M39.8,48.2c2.4-1,4.5-2.5,6.4-4.3
			s3.2-3.9,4.3-6.3s1.5-5,1.5-7.8s-0.5-5.4-1.5-7.8s-2.5-4.5-4.3-6.4s-3.9-3.3-6.4-4.3s-5-1.5-7.8-1.5c-2.8,0-5.4,0.5-7.8,1.5
			s-4.5,2.4-6.3,4.3s-3.2,3.9-4.3,6.4s-1.5,5-1.5,7.8s0.5,5.4,1.5,7.8s2.4,4.5,4.3,6.3s3.9,3.2,6.3,4.3s5,1.5,7.8,1.5
			C34.8,49.8,37.4,49.3,39.8,48.2z M27.6,39.6c-1.2-0.9-2.2-2.2-2.9-3.9s-1-3.6-1-5.9s0.3-4.2,1-5.9s1.7-3,2.9-3.9s2.7-1.4,4.3-1.4
			c1.6,0,3.1,0.5,4.3,1.4s2.2,2.2,2.9,3.9s1,3.6,1,5.9s-0.3,4.2-1,5.9s-1.7,3-2.9,3.9S33.6,41,32,41C30.3,41,28.9,40.5,27.6,39.6z
			 M35.4,35.8c0.9-1.5,1.3-3.5,1.3-5.9c0-2.5-0.4-4.4-1.3-5.9s-2-2.2-3.4-2.2c-1.4,0-2.5,0.7-3.4,2.2s-1.3,3.5-1.3,5.9
			c0,2.4,0.4,4.4,1.3,5.9s2,2.2,3.4,2.2C33.4,38,34.5,37.3,35.4,35.8z"/>
	</g>
</g>
</svg>
