<?xml version="1.0" encoding="utf-8"?>
<!-- Generator: Adobe Illustrator 26.2.1, SVG Export Plug-In . SVG Version: 6.00 Build 0)  -->
<svg version="1.1"
	 id="svg10" inkscape:version="1.1 (c4e8f9ed74, 2021-05-24)" sodipodi:docname="console.svg" xmlns:cc="http://creativecommons.org/ns#" xmlns:dc="http://purl.org/dc/elements/1.1/" xmlns:inkscape="http://www.inkscape.org/namespaces/inkscape" xmlns:rdf="http://www.w3.org/1999/02/22-rdf-syntax-ns#" xmlns:sodipodi="http://sodipodi.sourceforge.net/DTD/sodipodi-0.dtd" xmlns:svg="http://www.w3.org/2000/svg"
	 xmlns="http://www.w3.org/2000/svg" xmlns:xlink="http://www.w3.org/1999/xlink" x="0px" y="0px" width="64px" height="64px"
	 viewBox="0 0 64 64" style="enable-background:new 0 0 64 64;" xml:space="preserve">
<style type="text/css">
	.st0{fill:#FFFFFF;}
</style>
<sodipodi:namedview  bordercolor="#666666" borderopacity="1" gridtolerance="10" guidetolerance="10" id="namedview12" inkscape:bbox-nodes="true" inkscape:bbox-paths="true" inkscape:current-layer="svg10" inkscape:cx="10.713376" inkscape:cy="32.047771" inkscape:document-rotation="0" inkscape:pagecheckerboard="false" inkscape:pageopacity="0" inkscape:pageshadow="2" inkscape:snap-bbox="true" inkscape:snap-bbox-edge-midpoints="true" inkscape:snap-bbox-midpoints="true" inkscape:snap-center="true" inkscape:snap-intersection-paths="true" inkscape:snap-midpoints="true" inkscape:snap-object-midpoints="true" inkscape:snap-smooth-nodes="true" inkscape:window-height="826" inkscape:window-maximized="1" inkscape:window-width="1600" inkscape:window-x="0" inkscape:window-y="0" inkscape:zoom="5.4137931" objecttolerance="10" pagecolor="#bfbfbf" showgrid="false">
	</sodipodi:namedview>
<desc  id="desc4">Created with Sketch.</desc>
<g>
	<g>
		<path class="st0" d="M21.6,57.1c-3.2-1.5-6.1-3.7-8.6-6.4c-2.5-2.7-4.4-5.9-5.8-9.4c-1.4-3.6-2.1-7.4-2.1-11.4
			c0-4,0.7-7.8,2.1-11.4c1.4-3.6,3.3-6.7,5.8-9.4c2.5-2.7,5.3-4.9,8.6-6.4C24.8,1,28.3,0.3,32,0.3c3.7,0,7.1,0.8,10.4,2.3
			C45.6,4.1,48.5,6.3,51,9c2.5,2.7,4.4,5.9,5.8,9.4c1.4,3.6,2.1,7.4,2.1,11.4c0,4-0.7,7.8-2.1,11.4S53.4,48,51,50.7
			c-2.5,2.7-5.3,4.9-8.6,6.4c-3.2,1.5-6.7,2.3-10.4,2.3C28.3,59.4,24.9,58.6,21.6,57.1z M40.7,52.6c2.7-1.3,5.1-3,7.1-5.3
			c2-2.3,3.6-4.9,4.8-7.8c1.2-3,1.7-6.2,1.7-9.6s-0.6-6.6-1.7-9.6c-1.2-3-2.8-5.6-4.8-7.9c-2.1-2.3-4.4-4-7.1-5.3
			C38,5.8,35.1,5.2,32,5.2c-3.1,0-6,0.6-8.7,1.9c-2.7,1.3-5.1,3-7.1,5.3c-2,2.3-3.6,4.9-4.8,7.9c-1.2,3-1.7,6.2-1.7,9.6
			s0.6,6.6,1.7,9.6c1.2,3,2.8,5.6,4.8,7.8c2,2.3,4.4,4,7.1,5.3c2.7,1.3,5.6,1.9,8.7,1.9C35.1,54.5,38,53.9,40.7,52.6z M27.1,41.9
			c-1.4-1.1-2.5-2.8-3.3-4.8c-0.8-2.1-1.2-4.5-1.2-7.3c0-2.8,0.4-5.2,1.2-7.3c0.8-2.1,1.9-3.7,3.3-4.8c1.4-1.1,3-1.7,4.9-1.7
			c1.8,0,3.5,0.6,4.9,1.7c1.4,1.2,2.5,2.8,3.3,4.8c0.8,2.1,1.2,4.5,1.2,7.3c0,2.8-0.4,5.2-1.2,7.3c-0.8,2.1-1.9,3.7-3.3,4.8
			c-1.4,1.2-3,1.7-4.9,1.7C30.1,43.6,28.5,43.1,27.1,41.9z M35.8,37.1c1-1.9,1.5-4.3,1.5-7.3c0-3-0.5-5.5-1.5-7.3
			c-1-1.8-2.2-2.8-3.8-2.8c-1.6,0-2.9,0.9-3.8,2.8c-1,1.8-1.5,4.3-1.5,7.3c0,3,0.5,5.5,1.5,7.3c1,1.9,2.2,2.8,3.8,2.8
			C33.5,39.9,34.8,39,35.8,37.1z"/>
	</g>
</g>
</svg>
