<?xml version="1.0" encoding="utf-8"?>
<!-- Generator: Adobe Illustrator 26.2.1, SVG Export Plug-In . SVG Version: 6.00 Build 0)  -->
<svg version="1.1"
	 id="svg10" inkscape:version="1.1 (c4e8f9ed74, 2021-05-24)" sodipodi:docname="console.svg" xmlns:cc="http://creativecommons.org/ns#" xmlns:dc="http://purl.org/dc/elements/1.1/" xmlns:inkscape="http://www.inkscape.org/namespaces/inkscape" xmlns:rdf="http://www.w3.org/1999/02/22-rdf-syntax-ns#" xmlns:sodipodi="http://sodipodi.sourceforge.net/DTD/sodipodi-0.dtd" xmlns:svg="http://www.w3.org/2000/svg"
	 xmlns="http://www.w3.org/2000/svg" xmlns:xlink="http://www.w3.org/1999/xlink" x="0px" y="0px" width="64px" height="64px"
	 viewBox="0 0 64 64" style="enable-background:new 0 0 64 64;" xml:space="preserve">
<style type="text/css">
	.st0{fill:#FFFFFF;}
</style>
<sodipodi:namedview  bordercolor="#666666" borderopacity="1" gridtolerance="10" guidetolerance="10" id="namedview12" inkscape:bbox-nodes="true" inkscape:bbox-paths="true" inkscape:current-layer="svg10" inkscape:cx="10.713376" inkscape:cy="32.047771" inkscape:document-rotation="0" inkscape:pagecheckerboard="false" inkscape:pageopacity="0" inkscape:pageshadow="2" inkscape:snap-bbox="true" inkscape:snap-bbox-edge-midpoints="true" inkscape:snap-bbox-midpoints="true" inkscape:snap-center="true" inkscape:snap-intersection-paths="true" inkscape:snap-midpoints="true" inkscape:snap-object-midpoints="true" inkscape:snap-smooth-nodes="true" inkscape:window-height="826" inkscape:window-maximized="1" inkscape:window-width="1600" inkscape:window-x="0" inkscape:window-y="0" inkscape:zoom="5.4137931" objecttolerance="10" pagecolor="#bfbfbf" showgrid="false">
	</sodipodi:namedview>
<desc  id="desc4">Created with Sketch.</desc>
<g>
	<g>
		<path class="st0" d="M21.8,52.1c-3.2-1.4-6-3.3-8.4-5.7C10.9,44,9,41.1,7.6,38c-1.4-3.2-2.1-6.6-2.1-10.2c0-3.6,0.7-7,2.1-10.2
			c1.4-3.2,3.3-6,5.7-8.4c2.4-2.4,5.2-4.3,8.4-5.7C24.9,2,28.4,1.3,32,1.3c3.6,0,7,0.7,10.2,2.1c3.2,1.4,6,3.3,8.4,5.7
			c2.4,2.4,4.3,5.2,5.7,8.4s2.1,6.6,2.1,10.2c0,3.6-0.7,7-2.1,10.2s-3.3,6-5.7,8.4s-5.2,4.3-8.4,5.7c-3.2,1.4-6.6,2.1-10.2,2.1
			C28.4,54.2,25,53.5,21.8,52.1z M41,49c2.8-1.2,5.2-2.8,7.4-5s3.8-4.6,4.9-7.3c1.2-2.8,1.8-5.8,1.8-9c0-3.2-0.6-6.2-1.8-9
			c-1.2-2.8-2.9-5.2-5-7.4c-2.1-2.1-4.6-3.8-7.3-5c-2.8-1.2-5.8-1.8-9-1.8c-3.2,0-6.2,0.6-9,1.8c-2.8,1.2-5.2,2.8-7.3,5
			c-2.1,2.1-3.7,4.6-4.9,7.4c-1.2,2.8-1.8,5.8-1.8,9c0,3.2,0.6,6.2,1.8,9c1.2,2.8,2.8,5.2,4.9,7.3s4.6,3.8,7.3,5
			c2.8,1.2,5.8,1.8,9,1.8C35.2,50.8,38.2,50.2,41,49z M27.9,39.1c-1.3-0.6-2.4-1.6-3.2-3c-0.5-0.8-0.9-1.9-1.2-3.2
			c-0.3-1.3-0.4-2.8-0.4-4.5c0-4.3,0.9-7.5,2.6-9.7c1.7-2.2,4-3.3,7-3.3c1.2,0,2.3,0.2,3.2,0.6c0.9,0.4,1.7,0.9,2.4,1.4
			c0.7,0.6,1.1,1.2,1.3,1.8c0.1,0.1,0.1,0.3,0.1,0.4c0,0.1,0,0.3,0,0.5c0,0.4-0.1,0.7-0.4,0.9c-0.2,0.2-0.5,0.3-0.9,0.3
			c-0.4,0-0.7-0.1-0.9-0.3c-0.2-0.2-0.5-0.4-0.8-0.8c-0.4-0.6-0.9-1.1-1.7-1.6s-1.6-0.6-2.6-0.6c-2,0-3.5,0.9-4.7,2.6
			c-1.2,1.7-1.8,4.1-1.8,7.2c0,0.1,0,0.1,0,0.1c0,0,0,0.1,0,0.1c0,0,0.1,0,0.1,0s0,0,0.1,0c0.5-1.1,1.3-2,2.4-2.8
			c1.1-0.8,2.5-1.2,4.3-1.2c1.4,0,2.7,0.3,3.9,0.9c1.2,0.6,2.1,1.5,2.8,2.6c0.7,1.1,1.1,2.5,1.1,4.1c0,2.6-0.8,4.6-2.4,6
			s-3.7,2.2-6.2,2.2C30.6,40.1,29.2,39.8,27.9,39.1z M36.1,36.1c1-1,1.5-2.4,1.5-4c0-1.6-0.5-2.9-1.5-3.9c-1-1-2.3-1.5-4-1.5
			c-1.6,0-3,0.5-4,1.5c-1,1-1.6,2.3-1.6,3.9c0,1.6,0.5,2.9,1.6,4c1,1.1,2.4,1.6,4,1.6C33.7,37.6,35.1,37.1,36.1,36.1z"/>
	</g>
</g>
</svg>
