<?xml version="1.0" encoding="utf-8"?>
<!-- Generator: Adobe Illustrator 26.2.1, SVG Export Plug-In . SVG Version: 6.00 Build 0)  -->
<svg version="1.1"
	 id="svg10" inkscape:version="1.1 (c4e8f9ed74, 2021-05-24)" sodipodi:docname="console.svg" xmlns:cc="http://creativecommons.org/ns#" xmlns:dc="http://purl.org/dc/elements/1.1/" xmlns:inkscape="http://www.inkscape.org/namespaces/inkscape" xmlns:rdf="http://www.w3.org/1999/02/22-rdf-syntax-ns#" xmlns:sodipodi="http://sodipodi.sourceforge.net/DTD/sodipodi-0.dtd" xmlns:svg="http://www.w3.org/2000/svg"
	 xmlns="http://www.w3.org/2000/svg" xmlns:xlink="http://www.w3.org/1999/xlink" x="0px" y="0px" width="64px" height="64px"
	 viewBox="0 0 64 64" style="enable-background:new 0 0 64 64;" xml:space="preserve">
<style type="text/css">
	.st0{fill:#FFFFFF;}
</style>
<sodipodi:namedview  bordercolor="#666666" borderopacity="1" gridtolerance="10" guidetolerance="10" id="namedview12" inkscape:bbox-nodes="true" inkscape:bbox-paths="true" inkscape:current-layer="svg10" inkscape:cx="10.713376" inkscape:cy="32.047771" inkscape:document-rotation="0" inkscape:pagecheckerboard="false" inkscape:pageopacity="0" inkscape:pageshadow="2" inkscape:snap-bbox="true" inkscape:snap-bbox-edge-midpoints="true" inkscape:snap-bbox-midpoints="true" inkscape:snap-center="true" inkscape:snap-intersection-paths="true" inkscape:snap-midpoints="true" inkscape:snap-object-midpoints="true" inkscape:snap-smooth-nodes="true" inkscape:window-height="826" inkscape:window-maximized="1" inkscape:window-width="1600" inkscape:window-x="0" inkscape:window-y="0" inkscape:zoom="5.4137931" objecttolerance="10" pagecolor="#bfbfbf" showgrid="false">
	</sodipodi:namedview>
<desc  id="desc4">Created with Sketch.</desc>
<g>
	<g>
		<path class="st0" d="M8.1,55.5c-1-1-1.5-2.5-1.5-4.5v-3.3c0-2,0.5-3.5,1.5-4.5c1-1,2.4-1.5,4.2-1.5h39.4c1.8,0,3.2,0.5,4.2,1.5
			c1,1,1.5,2.5,1.5,4.5V51c0,2-0.5,3.5-1.5,4.5c-1,1-2.4,1.5-4.2,1.5H12.3C10.5,57,9.1,56.5,8.1,55.5z M8.2,34.9
			c-0.6-0.6-1-1.6-1-2.7c0-0.6,0.1-1.1,0.3-1.7c0.2-0.5,0.5-1.1,0.9-1.6L28.3,5c0.5-0.6,1.1-1.1,1.7-1.5C30.6,3.2,31.3,3,32,3
			s1.4,0.2,2,0.6s1.2,0.9,1.6,1.5l19.8,23.9c0.4,0.5,0.7,1,1,1.6c0.2,0.6,0.3,1.1,0.3,1.7c0,1.2-0.3,2.1-1,2.7c-0.6,0.6-1.6,1-2.8,1
			H11C9.8,35.8,8.9,35.5,8.2,34.9z M51.4,52.7c0.6,0,1-0.2,1.3-0.5c0.3-0.4,0.4-0.9,0.4-1.5v-2.8c0-0.6-0.1-1.1-0.4-1.5
			c-0.3-0.4-0.7-0.5-1.3-0.5H12.6c-0.6,0-1,0.2-1.3,0.5c-0.3,0.4-0.4,0.9-0.4,1.5v2.8c0,0.6,0.1,1.1,0.4,1.5
			c0.3,0.4,0.7,0.5,1.3,0.5H51.4z M50.2,31.5c0.5,0,0.7-0.2,0.7-0.7c0-0.2-0.1-0.4-0.2-0.6L32.9,8.9c-0.3-0.4-0.6-0.6-0.9-0.6
			c-0.2,0-0.3,0.1-0.5,0.2c-0.1,0.1-0.3,0.2-0.4,0.4L13.3,30.2c-0.1,0.2-0.2,0.4-0.2,0.6c0,0.4,0.2,0.7,0.7,0.7H50.2z"/>
	</g>
</g>
</svg>
