<?xml version="1.0" encoding="utf-8"?>
<!-- Generator: Adobe Illustrator 26.2.1, SVG Export Plug-In . SVG Version: 6.00 Build 0)  -->
<svg version="1.1"
	 id="svg10" inkscape:version="1.1 (c4e8f9ed74, 2021-05-24)" sodipodi:docname="console.svg" xmlns:cc="http://creativecommons.org/ns#" xmlns:dc="http://purl.org/dc/elements/1.1/" xmlns:inkscape="http://www.inkscape.org/namespaces/inkscape" xmlns:rdf="http://www.w3.org/1999/02/22-rdf-syntax-ns#" xmlns:sodipodi="http://sodipodi.sourceforge.net/DTD/sodipodi-0.dtd" xmlns:svg="http://www.w3.org/2000/svg"
	 xmlns="http://www.w3.org/2000/svg" xmlns:xlink="http://www.w3.org/1999/xlink" x="0px" y="0px" width="64px" height="64px"
	 viewBox="0 0 64 64" style="enable-background:new 0 0 64 64;" xml:space="preserve">
<style type="text/css">
	.st0{fill:#FFFFFF;}
</style>
<sodipodi:namedview  bordercolor="#666666" borderopacity="1" gridtolerance="10" guidetolerance="10" id="namedview12" inkscape:bbox-nodes="true" inkscape:bbox-paths="true" inkscape:current-layer="svg10" inkscape:cx="10.713376" inkscape:cy="32.047771" inkscape:document-rotation="0" inkscape:pagecheckerboard="false" inkscape:pageopacity="0" inkscape:pageshadow="2" inkscape:snap-bbox="true" inkscape:snap-bbox-edge-midpoints="true" inkscape:snap-bbox-midpoints="true" inkscape:snap-center="true" inkscape:snap-intersection-paths="true" inkscape:snap-midpoints="true" inkscape:snap-object-midpoints="true" inkscape:snap-smooth-nodes="true" inkscape:window-height="826" inkscape:window-maximized="1" inkscape:window-width="1600" inkscape:window-x="0" inkscape:window-y="0" inkscape:zoom="5.4137931" objecttolerance="10" pagecolor="#bfbfbf" showgrid="false">
	</sodipodi:namedview>
<desc  id="desc4">Created with Sketch.</desc>
<g>
	<g>
		<path class="st0" d="M41.1,50.8c-0.7-0.2-1.5-0.3-2.6-0.3c-1.2,0-2.1,0.1-2.9,0.3s-1.6,0.3-2.4,0.3c-1,0-1.8-0.1-2.5-0.4
			c-0.7-0.3-1.3-0.7-1.8-1.2l-8.5-7.8c-2.2,0.2-4.2,0.1-6.1-0.5c-1.8-0.5-3.4-1.2-4.7-2.2c-1.3-0.9-2.3-2-2.9-3.1
			c-0.8-0.1-1.6-0.3-2.4-0.7c-0.8-0.4-1.4-1-1.9-1.7C2,33,1.8,32,1.8,30.9c0-1.3,0.4-2.4,1.1-3.3c0.8-0.8,1.7-1.4,2.9-1.7
			C7.1,22,9,19,11.5,17c2.6-2,5.6-3,9.3-3c1.5,0,3,0.2,4.4,0.7c1.4,0.5,2.8,1.1,4.3,1.9c1.5,0.8,3,1.8,4.6,2.8
			c1.6,1.1,3.4,2.2,5.4,3.4c0.5,0.3,1,0.6,1.4,0.7c0.4,0.2,0.8,0.2,1.1,0.2c0.2,0,0.5-0.1,0.7-0.2c0.2-0.1,0.4-0.3,0.7-0.5
			c-0.9-0.6-1.9-1.2-2.8-1.8c-0.9-0.6-1.9-1.2-2.8-1.8c-0.9-0.6-1.8-1.2-2.6-1.7s-1.6-1.1-2.4-1.6c-0.8-0.6-1.6-1.2-2.4-1.8
			c-0.8-0.6-1.4-1.3-1.9-1.9c-0.5-0.7-0.8-1.4-0.8-2.3c0-0.7,0.3-1.4,0.8-2.1c0.5-0.6,1.2-1.2,2-1.6c0.8-0.5,1.7-0.8,2.7-1.1
			c1-0.3,1.9-0.4,2.7-0.4c2.2,0,4.2,0.6,6,1.9c1.8,1.3,3.5,3.1,5.1,5.5l4.2,6.3c1.5,0,2.9,0.3,4.2,1c1.3,0.7,2.5,1.6,3.5,2.7
			s1.8,2.5,2.4,4.1c0.6,1.6,0.9,3.2,0.9,5.1c0,2-0.3,3.5-1,4.7c-0.7,1.1-1.7,1.9-2.9,2.4c-1.3,0.5-2.8,0.7-4.5,0.7
			c-0.8,0-1.7-0.1-2.7-0.3c-1-0.2-1.9-0.5-2.9-0.9s-1.8-0.9-2.6-1.5c-0.9,0.4-2.1,0.9-3.6,1.6c-1.4,0.7-2.9,1.5-4.4,2.5l-2.2-1.4
			c1-0.9,2.1-1.6,3.3-2.4c1.2-0.7,2.4-1.3,3.6-1.9c1.2-0.5,2.5-1,3.7-1.3c1.2,0.9,2.5,1.5,3.9,2.1c1.4,0.5,2.7,0.8,4,0.8
			c1.4,0,2.5-0.2,3.3-0.5s1.5-0.8,1.8-1.5c0.4-0.7,0.6-1.7,0.6-3c0-1.5-0.2-2.9-0.7-4.1c-0.5-1.3-1.2-2.4-2.1-3.3s-1.9-1.7-3.1-2.2
			c-1.2-0.5-2.4-0.7-3.8-0.6l-6-7.9c-1.2-1.6-2.4-2.8-3.8-3.8c-1.3-0.9-2.7-1.4-4.3-1.4c-0.7,0-1.3,0.1-2.1,0.3s-1.3,0.5-1.8,0.8
			c-0.5,0.3-0.8,0.7-0.8,1.1c0,0.2,0.2,0.5,0.5,0.9c0.4,0.4,0.8,0.8,1.3,1.2c0.5,0.4,1,0.8,1.5,1.1l13,8.8c-0.8,1.5-1.6,2.6-2.5,3.4
			c-0.9,0.7-1.8,1.1-2.9,1.1c-0.5,0-1.1-0.1-1.7-0.2c-0.7-0.2-1.3-0.5-2-0.9c-1.2-0.7-2.5-1.6-3.9-2.6c-1.4-1-2.9-1.9-4.4-2.8
			c-1.5-0.9-3.1-1.7-4.7-2.3c-1.6-0.6-3.2-0.9-4.8-0.9c-3,0-5.6,0.9-7.8,2.6c-2.1,1.7-3.7,4.4-4.7,8c-1.1-0.1-1.9,0.2-2.5,0.7
			c-0.6,0.5-0.9,1.2-0.9,2c0,0.9,0.3,1.6,1,2C6.5,33,7.3,33.2,8.3,33c1.3,2.1,3.1,3.6,5.4,4.6c2.3,0.9,5,1.3,8.1,1.2l8.7,8.1
			c0.5,0.4,1,0.7,1.5,0.8c0.5,0.1,1,0.2,1.4,0.2c0.4,0,0.8,0,1.3-0.1s1-0.1,1.7-0.2s1.3-0.1,2.2-0.1c0.8,0,1.7,0.1,2.4,0.3
			s1.6,0.3,2.6,0.3c0.8,0,1.4-0.2,1.9-0.5c0.4-0.4,0.7-0.8,0.7-1.4c0-1-0.4-1.8-1.2-2.4c-0.8-0.6-1.8-1-3-1.3
			C40.6,42.1,39.3,42,38,42c-1.1,0-2.1,0.1-2.8,0.2c-0.8,0.1-1.5,0.3-2.3,0.4L31,37.8c-0.9-2.3-1.9-4.2-3-5.7
			c-1-1.4-2.2-2.4-3.4-3.1c-1.2-0.6-2.6-1-4.1-1c-0.5,0-0.9,0-1.2,0.1c-0.3,0-0.7,0.1-1.1,0.1c-0.4,0-0.7-0.1-1-0.4
			c-0.2-0.2-0.4-0.6-0.4-1c0-0.4,0.1-0.7,0.3-0.9c0.2-0.3,0.5-0.5,1-0.6c0.4-0.1,0.8-0.2,1.2-0.2s0.8,0,1.2,0c1.6,0,3.2,0.3,4.7,1
			c1.5,0.7,3,1.8,4.3,3.3s2.5,3.6,3.5,6.2l1.4,3.8c0.2,0,0.5-0.1,0.8-0.1c0.3,0,0.7-0.1,1.1-0.1s0.9,0,1.4,0c2.4,0,4.4,0.3,6.1,0.8
			c1.6,0.6,2.8,1.4,3.6,2.4c0.8,1.1,1.2,2.4,1.2,3.9c0,0.8-0.2,1.6-0.5,2.4s-0.9,1.3-1.7,1.8c-0.8,0.5-1.9,0.7-3.2,0.7
			C42.6,51.1,41.8,51,41.1,50.8z M14.2,52c-1.4-1-2-2.4-2-4.2c0-1.3,0.4-2.4,1.3-3.1s2-1.2,3.3-1.2c0.5,0,1,0,1.4,0.1
			c0.4,0.1,0.9,0.2,1.3,0.2c0.4,0.1,0.9,0.1,1.3,0.1c0.5,0,0.9-0.1,1.3-0.2c0.4-0.2,0.8-0.5,1.3-1.1l2.1,2c-0.8,0.8-1.5,1.4-2.3,1.6
			c-0.8,0.2-1.8,0.4-2.9,0.4c-0.7,0-1.3-0.1-1.9-0.2c-0.6-0.1-1.2-0.2-1.8-0.2c-0.6,0-1,0.1-1.2,0.4c-0.3,0.3-0.4,0.7-0.4,1.1
			c0,0.9,0.4,1.5,1.2,2c0.8,0.5,1.9,0.8,3.3,0.8c1.2,0,2.4-0.1,3.4-0.4c1.1-0.3,2-0.7,2.9-1.2s1.6-1.2,2.1-2l2.4,1.8
			c-1,1.2-2,2.1-3.2,2.8s-2.3,1.2-3.6,1.5s-2.6,0.4-4,0.4C17.3,53.5,15.5,53,14.2,52z M51.3,29.9c-0.3-0.4-0.5-0.8-0.5-1.4
			c0-0.5,0.2-1,0.5-1.4c0.3-0.4,0.8-0.6,1.2-0.6c0.5,0,0.9,0.2,1.2,0.6c0.4,0.4,0.5,0.8,0.5,1.4c0,0.5-0.2,1-0.5,1.4
			c-0.4,0.4-0.8,0.6-1.2,0.6C52.1,30.5,51.7,30.3,51.3,29.9z"/>
	</g>
</g>
</svg>
