<?xml version="1.0" encoding="utf-8"?>
<!-- Generator: Adobe Illustrator 26.2.1, SVG Export Plug-In . SVG Version: 6.00 Build 0)  -->
<svg version="1.1"
	 id="svg10" inkscape:version="1.1 (c4e8f9ed74, 2021-05-24)" sodipodi:docname="console.svg" xmlns:cc="http://creativecommons.org/ns#" xmlns:dc="http://purl.org/dc/elements/1.1/" xmlns:inkscape="http://www.inkscape.org/namespaces/inkscape" xmlns:rdf="http://www.w3.org/1999/02/22-rdf-syntax-ns#" xmlns:sodipodi="http://sodipodi.sourceforge.net/DTD/sodipodi-0.dtd" xmlns:svg="http://www.w3.org/2000/svg"
	 xmlns="http://www.w3.org/2000/svg" xmlns:xlink="http://www.w3.org/1999/xlink" x="0px" y="0px" width="64px" height="64px"
	 viewBox="0 0 64 64" style="enable-background:new 0 0 64 64;" xml:space="preserve">
<style type="text/css">
	.st0{fill:#FFFFFF;}
</style>
<sodipodi:namedview  bordercolor="#666666" borderopacity="1" gridtolerance="10" guidetolerance="10" id="namedview12" inkscape:bbox-nodes="true" inkscape:bbox-paths="true" inkscape:current-layer="svg10" inkscape:cx="10.713376" inkscape:cy="32.047771" inkscape:document-rotation="0" inkscape:pagecheckerboard="false" inkscape:pageopacity="0" inkscape:pageshadow="2" inkscape:snap-bbox="true" inkscape:snap-bbox-edge-midpoints="true" inkscape:snap-bbox-midpoints="true" inkscape:snap-center="true" inkscape:snap-intersection-paths="true" inkscape:snap-midpoints="true" inkscape:snap-object-midpoints="true" inkscape:snap-smooth-nodes="true" inkscape:window-height="826" inkscape:window-maximized="1" inkscape:window-width="1600" inkscape:window-x="0" inkscape:window-y="0" inkscape:zoom="5.4137931" objecttolerance="10" pagecolor="#bfbfbf" showgrid="false">
	</sodipodi:namedview>
<desc  id="desc4">Created with Sketch.</desc>
<g>
	<g>
		<path class="st0" d="M40.8,56.3c-0.7-0.2-1.6-0.3-2.7-0.3c-1.1,0-2,0.1-2.8,0.3s-1.6,0.3-2.5,0.3c-1,0-1.9-0.2-2.6-0.5
			s-1.4-0.8-2.1-1.5L20,45.9c-2.1,0.2-4.1,0-5.9-0.5c-1.8-0.5-3.4-1.3-4.7-2.4c-1.3-1-2.3-2.2-2.9-3.5c-1,0-1.8-0.3-2.6-0.7
			c-0.8-0.5-1.4-1.1-1.9-2s-0.7-1.9-0.7-3.2c0-1.5,0.4-2.8,1.2-3.8c0.8-1,1.8-1.6,3.1-1.9c1.2-4.3,3.1-7.5,5.6-9.7
			c2.5-2.2,5.5-3.3,9.1-3.3c1.5,0,3,0.3,4.5,0.8c1.4,0.5,2.9,1.2,4.3,2.2c1.5,0.9,3,1.9,4.6,3.1c1.6,1.1,3.3,2.3,5.2,3.6
			c0.5,0.4,1,0.7,1.6,1s1,0.4,1.3,0.4c0.2,0,0.4,0,0.5-0.1s0.4-0.2,0.5-0.4c-0.8-0.6-1.6-1.2-2.6-1.9s-1.9-1.4-2.8-2.1
			s-1.9-1.4-2.7-2s-1.6-1.2-2.3-1.7c-0.9-0.7-1.6-1.4-2.4-2c-0.7-0.7-1.3-1.3-1.7-2.1c-0.4-0.7-0.6-1.5-0.6-2.4
			c0-0.9,0.3-1.8,0.8-2.5c0.5-0.8,1.2-1.4,2-1.9s1.7-0.9,2.7-1.2S35,5,35.9,5c2.4,0,4.5,0.7,6.3,2.1s3.6,3.4,5.1,6.1l4.1,7
			c1.6,0.1,3,0.5,4.4,1.2s2.6,1.8,3.6,3.1s1.8,2.8,2.4,4.5s0.9,3.6,0.9,5.6c0,2.1-0.4,3.8-1.1,5.1s-1.7,2.2-3.1,2.8s-3,0.9-4.9,0.9
			c-0.8,0-1.7-0.1-2.7-0.3s-2-0.6-2.9-1s-1.8-0.9-2.6-1.5c-0.9,0.4-2,1-3.3,1.7s-2.6,1.5-3.9,2.5l-2.9-1.5c0.9-1,1.9-1.9,3.1-2.7
			s2.4-1.6,3.6-2.2s2.6-1.2,3.8-1.6c1.3,0.9,2.6,1.6,4,2.2s2.7,0.8,3.9,0.8c1.4,0,2.4-0.1,3.2-0.4s1.4-0.8,1.7-1.5s0.5-1.7,0.5-3
			c0-1.6-0.2-3-0.7-4.4s-1.1-2.5-2-3.6s-1.8-1.8-3-2.3s-2.4-0.8-3.8-0.8l-6.3-8.9c-1.1-1.6-2.3-2.9-3.5-3.8S37.5,9.4,36,9.4
			c-0.6,0-1.2,0.1-1.8,0.3s-1.1,0.4-1.6,0.8c-0.4,0.3-0.6,0.7-0.6,1.1c0,0.2,0.1,0.5,0.4,0.8s0.6,0.7,1,1.1c0.4,0.4,0.8,0.7,1.2,1
			l12.8,10c-0.5,1.8-1.3,3.2-2.2,4.1s-2.1,1.4-3.3,1.4c-0.5,0-1.2-0.1-2-0.3s-1.6-0.6-2.3-1.1c-1.3-0.8-2.7-1.8-4.1-2.8
			s-2.8-2.1-4.3-3s-2.9-1.8-4.4-2.4s-3-0.9-4.6-0.9c-2.9,0-5.3,0.9-7.3,2.7s-3.5,4.6-4.5,8.5c-1,0-1.8,0.2-2.4,0.7s-0.9,1.1-0.9,2
			c0,0.9,0.3,1.5,0.9,1.9c0.6,0.4,1.4,0.6,2.3,0.5c1.3,2.2,3,3.8,5.2,4.8c2.2,1,4.9,1.3,8.1,1.2l8.8,9.6c0.4,0.4,0.8,0.7,1.2,0.8
			s0.8,0.2,1.3,0.2c0.3,0,0.7,0,1.2-0.1s1.1-0.1,1.8-0.2s1.4-0.1,2.1-0.1c0.9,0,1.8,0.1,2.6,0.3s1.7,0.3,2.7,0.3
			c0.7,0,1.2-0.2,1.6-0.6s0.5-0.8,0.5-1.3c0-0.9-0.3-1.7-1-2.3s-1.5-1.1-2.5-1.4s-2.2-0.5-3.5-0.5c-1.3,0-2.4,0.1-3.3,0.2
			s-1.7,0.3-2.5,0.5l-2-5.8c-0.9-2.5-1.8-4.5-2.8-6c-1-1.5-2.1-2.6-3.3-3.3c-1.2-0.7-2.5-1-3.9-1c-0.4,0-0.8,0-1.2,0.1
			s-0.7,0.1-1.1,0.1c-0.5,0-0.9-0.2-1.3-0.5s-0.5-0.8-0.5-1.4c0-0.4,0.1-0.8,0.4-1.1c0.2-0.3,0.7-0.5,1.2-0.7
			c0.4-0.1,0.9-0.2,1.3-0.2s0.9,0,1.3,0c1.7,0,3.3,0.4,4.9,1.1s3,2,4.4,3.7c1.3,1.7,2.5,4,3.4,6.8l1.4,4.2c0.2-0.1,0.5-0.1,0.8-0.2
			s0.7-0.1,1.2-0.1s1.1,0,1.8,0c2.3,0,4.2,0.4,5.8,1.1s2.8,1.7,3.6,2.9s1.2,2.7,1.2,4.3c0,1-0.2,1.9-0.6,2.8s-1.1,1.5-1.9,2.1
			s-2,0.8-3.4,0.8C42.4,56.7,41.6,56.6,40.8,56.3z M12.6,57.5c-1.5-1.2-2.2-2.9-2.2-5c0-1.6,0.4-2.8,1.3-3.8s2.1-1.4,3.5-1.4
			c0.5,0,1,0,1.4,0.1s0.9,0.2,1.4,0.2s1,0.1,1.5,0.1c0.5,0,1-0.1,1.5-0.2s1-0.5,1.5-0.9l2.4,2.7c-0.8,0.8-1.6,1.4-2.5,1.6
			s-1.9,0.4-3,0.4c-0.7,0-1.4-0.1-2-0.2S16.2,51,15.6,51c-0.5,0-0.9,0.1-1.2,0.4c-0.2,0.3-0.4,0.7-0.4,1.1c0,0.9,0.4,1.6,1.2,2.1
			s1.9,0.8,3.2,0.8c1.2,0,2.4-0.2,3.5-0.5c1.1-0.3,2.1-0.7,2.9-1.3s1.5-1.3,2-2.1l2.7,2.5c-0.9,1.2-1.9,2.2-3.1,3
			c-1.2,0.8-2.4,1.4-3.8,1.7c-1.4,0.4-2.8,0.6-4.2,0.6C16,59.3,14.1,58.7,12.6,57.5z M51.2,32.5c-0.4-0.4-0.5-0.9-0.5-1.5
			c0-0.6,0.2-1.1,0.5-1.6s0.8-0.6,1.3-0.6c0.5,0,0.9,0.2,1.3,0.6s0.5,0.9,0.5,1.6c0,0.6-0.2,1.1-0.5,1.5s-0.8,0.6-1.3,0.6
			C52,33.2,51.6,33,51.2,32.5z"/>
	</g>
</g>
</svg>
