<?xml version="1.0" encoding="utf-8"?>
<!-- Generator: Adobe Illustrator 26.2.1, SVG Export Plug-In . SVG Version: 6.00 Build 0)  -->
<svg version="1.1"
	 id="svg10" inkscape:version="1.1 (c4e8f9ed74, 2021-05-24)" sodipodi:docname="console.svg" xmlns:cc="http://creativecommons.org/ns#" xmlns:dc="http://purl.org/dc/elements/1.1/" xmlns:inkscape="http://www.inkscape.org/namespaces/inkscape" xmlns:rdf="http://www.w3.org/1999/02/22-rdf-syntax-ns#" xmlns:sodipodi="http://sodipodi.sourceforge.net/DTD/sodipodi-0.dtd" xmlns:svg="http://www.w3.org/2000/svg"
	 xmlns="http://www.w3.org/2000/svg" xmlns:xlink="http://www.w3.org/1999/xlink" x="0px" y="0px" width="64px" height="64px"
	 viewBox="0 0 64 64" style="enable-background:new 0 0 64 64;" xml:space="preserve">
<style type="text/css">
	.st0{fill:#FFFFFF;}
</style>
<sodipodi:namedview  bordercolor="#666666" borderopacity="1" gridtolerance="10" guidetolerance="10" id="namedview12" inkscape:bbox-nodes="true" inkscape:bbox-paths="true" inkscape:current-layer="svg10" inkscape:cx="10.713376" inkscape:cy="32.047771" inkscape:document-rotation="0" inkscape:pagecheckerboard="false" inkscape:pageopacity="0" inkscape:pageshadow="2" inkscape:snap-bbox="true" inkscape:snap-bbox-edge-midpoints="true" inkscape:snap-bbox-midpoints="true" inkscape:snap-center="true" inkscape:snap-intersection-paths="true" inkscape:snap-midpoints="true" inkscape:snap-object-midpoints="true" inkscape:snap-smooth-nodes="true" inkscape:window-height="826" inkscape:window-maximized="1" inkscape:window-width="1600" inkscape:window-x="0" inkscape:window-y="0" inkscape:zoom="5.4137931" objecttolerance="10" pagecolor="#bfbfbf" showgrid="false">
	</sodipodi:namedview>
<desc  id="desc4">Created with Sketch.</desc>
<g>
	<path class="st0" d="M40,52.1c-0.8-0.2-1.7-0.3-2.8-0.3c-0.9,0-1.8,0.1-2.6,0.2s-1.6,0.2-2.4,0.2c-1,0-1.9-0.1-2.8-0.4
		c-0.9-0.3-1.6-0.7-2.2-1.4l-7.2-7.2c-1.9,0.1-3.7,0-5.4-0.4c-1.7-0.4-3.1-1-4.4-1.9S8,39.1,7.4,38c-1,0-2-0.2-2.8-0.6
		s-1.4-1-1.9-1.7C2.2,34.9,2,34,2,33c0-1.3,0.4-2.3,1.1-3.2c0.8-0.9,1.8-1.4,3.2-1.6c1.2-3.4,2.9-6,5.2-7.7c2.3-1.7,5.1-2.6,8.3-2.6
		c1.5,0,3,0.2,4.4,0.7c1.4,0.5,2.8,1,4.2,1.8c1.4,0.7,2.8,1.6,4.3,2.4s3,1.8,4.7,2.6c0.5,0.4,1.1,0.7,1.8,0.9
		c0.7,0.3,1.2,0.4,1.6,0.4c0.1,0,0.3,0,0.4-0.1c0.1,0,0.2-0.1,0.3-0.2c-0.6-0.4-1.3-0.8-2.1-1.4c-0.9-0.6-1.8-1.1-2.7-1.8
		c-1-0.6-1.9-1.2-2.7-1.8c-0.9-0.6-1.5-1-2.1-1.4c-0.9-0.6-1.6-1.1-2.2-1.6c-0.6-0.5-1-1-1.3-1.6c-0.3-0.5-0.4-1.1-0.4-1.8
		c0-0.9,0.2-1.7,0.7-2.4c0.5-0.7,1.1-1.3,1.9-1.7s1.6-0.8,2.6-1c0.9-0.2,1.8-0.4,2.7-0.4c2.4,0,4.6,0.6,6.4,1.7
		c1.8,1.1,3.4,2.7,4.8,4.8l3.8,5.6c1.6,0.1,3.1,0.5,4.5,1.1c1.4,0.6,2.5,1.5,3.5,2.5c1,1.1,1.8,2.3,2.3,3.7c0.5,1.4,0.8,2.9,0.8,4.6
		c0,1.7-0.4,3-1.1,4.1s-1.8,1.8-3.1,2.3c-1.4,0.5-3.1,0.8-5.2,0.8c-0.8,0-1.6-0.1-2.6-0.3c-1-0.2-1.9-0.4-2.8-0.8
		c-0.9-0.3-1.8-0.7-2.5-1.1c-0.8,0.4-1.7,0.8-2.8,1.3c-1,0.5-2,1.1-2.9,1.7l-3.7-1.2c0.7-0.8,1.6-1.6,2.6-2.3s2.2-1.4,3.4-2
		c1.2-0.6,2.5-1.1,3.8-1.4c1.3,0.7,2.6,1.3,3.9,1.7c1.3,0.4,2.5,0.6,3.6,0.6c1.3,0,2.3-0.1,3-0.3c0.7-0.2,1.2-0.5,1.5-1
		c0.3-0.5,0.4-1.2,0.4-2.1c0-1.2-0.2-2.3-0.6-3.3c-0.4-1-1-1.9-1.7-2.7c-0.8-0.8-1.7-1.4-2.7-1.8c-1.1-0.4-2.3-0.7-3.6-0.7l-6.4-7.4
		c-1-1.1-2-2-3.1-2.6c-1-0.6-2.2-0.9-3.6-0.9c-0.4,0-0.9,0.1-1.3,0.2c-0.4,0.1-0.8,0.3-1.1,0.5c-0.3,0.2-0.4,0.5-0.4,0.8
		c0,0.1,0.1,0.3,0.2,0.5c0.1,0.2,0.3,0.4,0.6,0.6c0.2,0.2,0.5,0.4,0.9,0.6l11.8,8.3c-0.2,1.6-0.8,2.9-1.8,3.8
		c-1,0.9-2.2,1.3-3.8,1.3c-0.6,0-1.3-0.1-2.2-0.3c-0.9-0.2-1.8-0.5-2.8-1c-1.5-0.7-2.8-1.5-4.2-2.3c-1.3-0.8-2.6-1.6-3.9-2.3
		c-1.3-0.7-2.6-1.3-3.9-1.8c-1.3-0.5-2.7-0.7-4.1-0.7c-2.5,0-4.5,0.7-6.2,2c-1.6,1.4-2.9,3.5-3.9,6.3c-0.8,0-1.6,0.2-2.2,0.5
		c-0.6,0.3-0.9,0.8-0.9,1.4c0,0.6,0.3,1,0.8,1.3s1.2,0.4,2.1,0.4c1.2,1.7,2.8,2.9,4.8,3.6s4.5,1,7.6,0.8l8.4,8.6
		c0.3,0.3,0.5,0.4,0.8,0.5s0.7,0.1,1.1,0.1c0.2,0,0.6,0,1.1,0s1.2,0,1.8-0.1s1.3,0,1.9,0c1,0,1.9,0.1,2.7,0.2
		c0.8,0.1,1.7,0.2,2.7,0.2c0.5,0,0.9-0.1,1.1-0.4c0.3-0.3,0.4-0.6,0.4-0.9c0-0.5-0.2-1-0.6-1.5c-0.4-0.4-1-0.8-1.8-1
		c-0.8-0.3-1.8-0.4-2.9-0.4c-1.6,0-2.8,0.1-3.8,0.2c-1,0.1-1.9,0.3-2.7,0.4L30,39.3c-0.8-1.9-1.6-3.4-2.5-4.5
		c-0.9-1.1-1.9-2-2.9-2.5c-1.1-0.5-2.3-0.8-3.6-0.8c-0.4,0-0.8,0-1.2,0.1s-0.8,0.1-1.1,0.1c-0.6,0-1.2-0.2-1.6-0.6
		c-0.4-0.4-0.6-0.9-0.6-1.5c0-0.4,0.2-0.8,0.5-1c0.3-0.3,0.8-0.5,1.4-0.6c0.5-0.1,0.9-0.2,1.4-0.2c0.4,0,0.9,0,1.2,0
		c1.8,0,3.4,0.3,5,1c1.6,0.7,3,1.7,4.2,3.1c1.2,1.4,2.3,3.2,3.1,5.4l1.3,3.5c0.2-0.1,0.5-0.1,0.8-0.2s0.7-0.1,1.3-0.1
		c0.5,0,1.3-0.1,2.3-0.1c2,0,3.7,0.3,5.2,1c1.5,0.7,2.6,1.6,3.4,2.7c0.8,1.1,1.2,2.2,1.2,3.5c0,0.9-0.2,1.7-0.7,2.5
		c-0.5,0.7-1.2,1.3-2.1,1.8c-0.9,0.4-2.1,0.7-3.4,0.7C41.7,52.3,40.8,52.2,40,52.1z M11.5,52.9c-1.5-1.1-2.3-2.5-2.3-4.4
		c0-1.4,0.5-2.5,1.4-3.4c0.9-0.9,2.1-1.3,3.6-1.3c0.5,0,0.9,0,1.4,0.1c0.4,0.1,0.9,0.1,1.4,0.2s1.1,0.1,1.8,0.1c0.5,0,1.1,0,1.7-0.1
		s1.1-0.2,1.5-0.5l2.7,2.7C23.9,47,23,47.4,22,47.6c-1,0.2-2,0.3-3.1,0.3c-0.8,0-1.5-0.1-2.1-0.2c-0.6-0.1-1.2-0.2-1.8-0.2
		c-0.4,0-0.7,0.1-1,0.3c-0.2,0.2-0.3,0.5-0.3,0.8c0,0.7,0.4,1.2,1.1,1.5c0.8,0.4,1.7,0.5,2.9,0.5c1.2,0,2.3-0.1,3.4-0.4
		c1.1-0.2,2-0.6,2.8-1c0.8-0.5,1.4-1,1.8-1.6l2.8,2.5c-0.8,0.9-1.7,1.7-2.9,2.3c-1.2,0.6-2.5,1.1-3.9,1.5c-1.4,0.3-2.8,0.5-4.2,0.5
		C15.1,54.5,13,54,11.5,52.9z M50.1,32.1c-0.4-0.4-0.5-0.8-0.5-1.3c0-0.5,0.2-0.9,0.5-1.3c0.4-0.4,0.8-0.5,1.3-0.5
		c0.5,0,0.9,0.2,1.3,0.5c0.4,0.4,0.5,0.8,0.5,1.3c0,0.5-0.2,0.9-0.5,1.3c-0.4,0.4-0.8,0.5-1.3,0.5C50.9,32.6,50.5,32.4,50.1,32.1z"
		/>
</g>
</svg>
