<?xml version="1.0" encoding="utf-8"?>
<!-- Generator: Adobe Illustrator 26.2.1, SVG Export Plug-In . SVG Version: 6.00 Build 0)  -->
<svg version="1.1"
	 id="svg10" inkscape:version="1.1 (c4e8f9ed74, 2021-05-24)" sodipodi:docname="console.svg" xmlns:cc="http://creativecommons.org/ns#" xmlns:dc="http://purl.org/dc/elements/1.1/" xmlns:inkscape="http://www.inkscape.org/namespaces/inkscape" xmlns:rdf="http://www.w3.org/1999/02/22-rdf-syntax-ns#" xmlns:sodipodi="http://sodipodi.sourceforge.net/DTD/sodipodi-0.dtd" xmlns:svg="http://www.w3.org/2000/svg"
	 xmlns="http://www.w3.org/2000/svg" xmlns:xlink="http://www.w3.org/1999/xlink" x="0px" y="0px" width="64px" height="64px"
	 viewBox="0 0 64 64" style="enable-background:new 0 0 64 64;" xml:space="preserve">
<style type="text/css">
	.st0{fill:#FFFFFF;}
</style>
<sodipodi:namedview  bordercolor="#666666" borderopacity="1" gridtolerance="10" guidetolerance="10" id="namedview12" inkscape:bbox-nodes="true" inkscape:bbox-paths="true" inkscape:current-layer="svg10" inkscape:cx="10.713376" inkscape:cy="32.047771" inkscape:document-rotation="0" inkscape:pagecheckerboard="false" inkscape:pageopacity="0" inkscape:pageshadow="2" inkscape:snap-bbox="true" inkscape:snap-bbox-edge-midpoints="true" inkscape:snap-bbox-midpoints="true" inkscape:snap-center="true" inkscape:snap-intersection-paths="true" inkscape:snap-midpoints="true" inkscape:snap-object-midpoints="true" inkscape:snap-smooth-nodes="true" inkscape:window-height="826" inkscape:window-maximized="1" inkscape:window-width="1600" inkscape:window-x="0" inkscape:window-y="0" inkscape:zoom="5.4137931" objecttolerance="10" pagecolor="#bfbfbf" showgrid="false">
	</sodipodi:namedview>
<desc  id="desc4">Created with Sketch.</desc>
<g>
	<g>
		<path class="st0" d="M11,57.2c-1.3-1.3-2-3.2-2-5.8v-27c0-2.5,0.6-4.5,2-5.8c1.3-1.3,3.2-1.9,5.8-1.9h7.6V20h-7.5
			c-1.5,0-2.6,0.4-3.4,1.2c-0.8,0.8-1.2,1.9-1.2,3.5v26.6c0,1.5,0.4,2.7,1.2,3.5c0.8,0.8,1.9,1.2,3.4,1.2h30.2
			c1.5,0,2.6-0.4,3.4-1.2c0.8-0.8,1.2-1.9,1.2-3.5V24.7c0-1.5-0.4-2.7-1.2-3.5c-0.8-0.8-1.9-1.2-3.4-1.2h-7.5v-3.2h7.5
			c2.6,0,4.5,0.7,5.8,2c1.3,1.3,2,3.2,2,5.7v27c0,2.5-0.7,4.4-2,5.7s-3.2,2-5.8,2H16.8C14.2,59.2,12.3,58.5,11,57.2z M30.9,38.4
			c-0.3-0.3-0.5-0.7-0.5-1.1V8.9L30.5,5l-2.4,2.5l-4.5,4.7c-0.3,0.3-0.7,0.5-1.1,0.5c-0.4,0-0.8-0.1-1-0.4c-0.3-0.3-0.4-0.6-0.4-1
			c0-0.4,0.1-0.7,0.4-1.1l9.3-9.1c0.2-0.2,0.4-0.4,0.6-0.4s0.4-0.1,0.6-0.1s0.4,0,0.6,0.1s0.4,0.2,0.6,0.4l9.3,9.1
			c0.3,0.3,0.5,0.7,0.5,1.1c0,0.4-0.1,0.7-0.4,1c-0.3,0.3-0.6,0.4-1.1,0.4c-0.4,0-0.8-0.2-1.1-0.5l-4.5-4.7L33.5,5l0.1,3.8v28.4
			c0,0.4-0.2,0.8-0.5,1.1c-0.3,0.3-0.7,0.5-1.1,0.5C31.6,38.9,31.2,38.7,30.9,38.4z"/>
	</g>
</g>
</svg>
