<?xml version="1.0" encoding="utf-8"?>
<!-- Generator: Adobe Illustrator 26.2.1, SVG Export Plug-In . SVG Version: 6.00 Build 0)  -->
<svg version="1.1"
	 id="svg10" inkscape:version="1.1 (c4e8f9ed74, 2021-05-24)" sodipodi:docname="console.svg" xmlns:cc="http://creativecommons.org/ns#" xmlns:dc="http://purl.org/dc/elements/1.1/" xmlns:inkscape="http://www.inkscape.org/namespaces/inkscape" xmlns:rdf="http://www.w3.org/1999/02/22-rdf-syntax-ns#" xmlns:sodipodi="http://sodipodi.sourceforge.net/DTD/sodipodi-0.dtd" xmlns:svg="http://www.w3.org/2000/svg"
	 xmlns="http://www.w3.org/2000/svg" xmlns:xlink="http://www.w3.org/1999/xlink" x="0px" y="0px" width="64px" height="64px"
	 viewBox="0 0 64 64" style="enable-background:new 0 0 64 64;" xml:space="preserve">
<style type="text/css">
	.st0{fill:#FFFFFF;}
</style>
<sodipodi:namedview  bordercolor="#666666" borderopacity="1" gridtolerance="10" guidetolerance="10" id="namedview12" inkscape:bbox-nodes="true" inkscape:bbox-paths="true" inkscape:current-layer="svg10" inkscape:cx="10.713376" inkscape:cy="32.047771" inkscape:document-rotation="0" inkscape:pagecheckerboard="false" inkscape:pageopacity="0" inkscape:pageshadow="2" inkscape:snap-bbox="true" inkscape:snap-bbox-edge-midpoints="true" inkscape:snap-bbox-midpoints="true" inkscape:snap-center="true" inkscape:snap-intersection-paths="true" inkscape:snap-midpoints="true" inkscape:snap-object-midpoints="true" inkscape:snap-smooth-nodes="true" inkscape:window-height="826" inkscape:window-maximized="1" inkscape:window-width="1600" inkscape:window-x="0" inkscape:window-y="0" inkscape:zoom="5.4137931" objecttolerance="10" pagecolor="#bfbfbf" showgrid="false">
	</sodipodi:namedview>
<desc  id="desc4">Created with Sketch.</desc>
<g>
	<g>
		<path class="st0" d="M6.3,55.9c-1-1.1-1.5-2.9-1.5-5.2v-20c0-2.3,0.5-4.1,1.5-5.2c1-1.1,2.5-1.7,4.4-1.7h24.2c2,0,3.4,0.6,4.4,1.7
			c1,1.1,1.5,2.8,1.5,5.2v20c0,2.4-0.5,4.1-1.5,5.2c-1,1.1-2.5,1.7-4.4,1.7H10.8C8.8,57.6,7.3,57,6.3,55.9z M34.8,53.2
			c0.6,0,1.1-0.2,1.4-0.5c0.3-0.3,0.4-0.9,0.4-1.7V30.4c0-0.8-0.1-1.4-0.4-1.7s-0.7-0.5-1.4-0.5H10.9c-0.6,0-1.1,0.2-1.4,0.5
			c-0.3,0.3-0.4,0.9-0.4,1.7V51c0,0.8,0.1,1.4,0.4,1.7c0.3,0.3,0.8,0.5,1.4,0.5H34.8z M32.3,16.9c0-2.7,0.4-5.1,1.1-7.1
			c0.7-2,1.7-3.7,3-5.1c1.3-1.3,2.7-2.3,4.3-3s3.3-1,5-1s3.4,0.3,5,1s3,1.7,4.3,3c1.3,1.3,2.3,3,3,5.1s1.1,4.4,1.1,7.1v5.8
			c0,0.9-0.2,1.6-0.6,2c-0.4,0.4-0.9,0.6-1.5,0.6c-0.6,0-1.1-0.2-1.5-0.7c-0.4-0.4-0.6-1.1-0.6-2v-6.4c0-2.4-0.4-4.5-1.3-6.1
			c-0.8-1.7-2-2.9-3.3-3.7c-1.4-0.8-2.9-1.3-4.5-1.3c-1.7,0-3.2,0.4-4.6,1.3s-2.5,2.1-3.3,3.7s-1.3,3.7-1.3,6.1v9.8h-4.2V16.9z"/>
	</g>
</g>
</svg>
