<?xml version="1.0" encoding="utf-8"?>
<!-- Generator: Adobe Illustrator 26.2.1, SVG Export Plug-In . SVG Version: 6.00 Build 0)  -->
<svg version="1.1"
	 id="svg10" inkscape:version="1.1 (c4e8f9ed74, 2021-05-24)" sodipodi:docname="console.svg" xmlns:cc="http://creativecommons.org/ns#" xmlns:dc="http://purl.org/dc/elements/1.1/" xmlns:inkscape="http://www.inkscape.org/namespaces/inkscape" xmlns:rdf="http://www.w3.org/1999/02/22-rdf-syntax-ns#" xmlns:sodipodi="http://sodipodi.sourceforge.net/DTD/sodipodi-0.dtd" xmlns:svg="http://www.w3.org/2000/svg"
	 xmlns="http://www.w3.org/2000/svg" xmlns:xlink="http://www.w3.org/1999/xlink" x="0px" y="0px" width="64px" height="64px"
	 viewBox="0 0 64 64" style="enable-background:new 0 0 64 64;" xml:space="preserve">
<style type="text/css">
	.st0{fill:#FFFFFF;}
</style>
<sodipodi:namedview  bordercolor="#666666" borderopacity="1" gridtolerance="10" guidetolerance="10" id="namedview12" inkscape:bbox-nodes="true" inkscape:bbox-paths="true" inkscape:current-layer="svg10" inkscape:cx="10.713376" inkscape:cy="32.047771" inkscape:document-rotation="0" inkscape:pagecheckerboard="false" inkscape:pageopacity="0" inkscape:pageshadow="2" inkscape:snap-bbox="true" inkscape:snap-bbox-edge-midpoints="true" inkscape:snap-bbox-midpoints="true" inkscape:snap-center="true" inkscape:snap-intersection-paths="true" inkscape:snap-midpoints="true" inkscape:snap-object-midpoints="true" inkscape:snap-smooth-nodes="true" inkscape:window-height="826" inkscape:window-maximized="1" inkscape:window-width="1600" inkscape:window-x="0" inkscape:window-y="0" inkscape:zoom="5.4137931" objecttolerance="10" pagecolor="#bfbfbf" showgrid="false">
	</sodipodi:namedview>
<desc  id="desc4">Created with Sketch.</desc>
<g>
	<g>
		<path class="st0" d="M6,51.5C5,50.5,4.6,49,4.6,47V28.1c0-2,0.5-3.5,1.4-4.4c0.9-0.9,2.3-1.4,4.2-1.4h24.6c1.8,0,3.2,0.5,4.2,1.4
			c0.9,0.9,1.4,2.4,1.4,4.4V47c0,2-0.5,3.5-1.4,4.5s-2.3,1.4-4.2,1.4H10.1C8.3,52.9,6.9,52.4,6,51.5z M34.7,49.9
			c0.8,0,1.4-0.2,1.8-0.6c0.4-0.4,0.6-1.1,0.6-2.1V28c0-1-0.2-1.7-0.6-2.1c-0.4-0.4-1-0.6-1.8-0.6H10.2c-0.8,0-1.4,0.2-1.8,0.6
			C8,26.3,7.8,26.9,7.8,28v19.2c0,1,0.2,1.7,0.6,2.1c0.4,0.4,1,0.6,1.8,0.6H34.7z M33.1,16.1c0-2.3,0.3-4.4,1-6.2
			c0.7-1.8,1.6-3.3,2.9-4.5s2.6-2.1,4.2-2.8c1.6-0.6,3.3-0.9,5.1-0.9s3.5,0.3,5.1,0.9c1.6,0.6,3,1.5,4.2,2.8
			c1.2,1.2,2.2,2.7,2.9,4.5c0.7,1.8,1,3.8,1,6.2v5.5c0,0.6-0.2,1.1-0.5,1.4c-0.3,0.3-0.7,0.4-1.1,0.4s-0.8-0.2-1.1-0.5
			c-0.3-0.3-0.5-0.8-0.5-1.4v-5.8c0-2.3-0.4-4.3-1.3-5.9C54,8.3,52.8,7,51.3,6.2c-1.5-0.9-3.2-1.3-5.1-1.3s-3.5,0.4-5,1.3
			c-1.5,0.9-2.7,2.1-3.6,3.7c-0.9,1.6-1.3,3.6-1.3,5.9v8h-3.2V16.1z"/>
	</g>
</g>
</svg>
